<svg id="Layer_1" data-name="Layer 1" xmlns="http://www.w3.org/2000/svg" viewBox="0 0 720 432"><defs><style>.cls-1{fill:#b2b035;}.cls-2,.cls-5{fill:#504d4e;}.cls-2{fill-rule:evenodd;}.cls-3{fill:#e9262a;}.cls-4{fill:#237697;}</style></defs><title>CSN QUMAS Logo_Final</title><rect class="cls-1" x="494.957" y="210.7115" width="61.9025" height="61.9025"/><path class="cls-2" d="M452.93,80.8v57.4335c0,31.1384.9443,58.2191,3.2089,82.91h-.4715A591.6784,591.6784,0,0,0,426.95,158.3947L386.6586,80.8H346.9974V272.2541h33.2133V213.5635c0-34.19-.66-61.1451-2.2647-84.7028h1.133c7.8947,20.8215,19.0294,44.5367,29.3453,64.1953l40.9516,79.1981H486.302V80.8ZM219.4234,264.0454c8.87,5.4725,28.056,10.7885,46.9279,10.7885,44.6632,0,69.8254-24.3444,69.8254-57.7164,0-25.3508-13.7135-42.9334-44.1906-56.6157-23.5277-10.82-33.058-16.9524-33.058-30.6669,0-10.631,8.7125-21.1355,28.2457-21.1355a72.8518,72.8518,0,0,1,34.1577,8.24l7.58-30.1631c-8.869-4.5294-22.7089-8.7125-40.9517-8.7125-41.4232,0-66.1138,24.1879-66.1138,55.4828,0,24.8482,17.8966,42.7447,46.77,55.3264,21.2942,9.1841,30.4783,17.5814,30.4783,31.1384,0,14.185-10.631,23.8728-31.1074,23.8728-15.5065,0-31.4524-4.6869-41.4543-10.6631ZM212.6615,85.3293c-5.4725-3.0825-18.8719-7.2656-39.5047-7.2656-50.797,0-93.8558,33.8746-93.8558,100.8073,0,56.93,31.9241,95.9629,89.3575,95.9629,19.6586,0,35.133-3.7116,42.241-7.2345l-5.1574-29.6915c-7.4231,3.3964-19.69,5.4725-31.1384,5.4725-34.5038,0-56.7411-23.0551-56.7411-66.6176,0-46.109,25.4762-67.9069,57.0551-67.9069a74.96,74.96,0,0,1,30.4783,6.2914Z"/><rect class="cls-3" x="495.486" y="80.9575" width="62.0882" height="62.1193"/><rect class="cls-4" x="558.0458" y="145.3104" width="62.0882" height="62.1193"/><rect class="cls-1" x="495.486" y="209.6943" width="62.0882" height="62.0882"/><path class="cls-5" d="M620.134,68.6218a19.7838,19.7838,0,1,0,19.7836,19.784A19.8062,19.8062,0,0,0,620.134,68.6218Zm0,36.3035a16.52,16.52,0,1,1,16.5195-16.5195A16.5381,16.5381,0,0,1,620.134,104.9253Zm8.8914-22.1011c0-5.3106-3.7279-7.185-8.9241-7.185h-7.9971V101.172h3.2488V90.3841h4.613L626.11,101.172h3.6862L623.2878,90.02C626.7553,89.1762,629.0254,86.8019,629.0254,82.8242ZM619.6328,87.75h-4.28V78.2737h4.28c3.9674,0,6.1541,1.1975,6.1541,4.5505C625.7869,86.1355,623.6,87.75,619.6328,87.75Z"/><path class="cls-5" d="M411.1027,355.9238c.6309,0,.9493.542.9493,1.627v.543a47.0687,47.0687,0,0,1-8.6114,3.3222,32.3264,32.3264,0,0,1-8.8144,1.4238,16.2826,16.2826,0,0,1-7.1192-1.56,50.409,50.409,0,0,1-6.373-3.6612q-3.1216-2.105-6.3057-4.2714a24.4052,24.4052,0,0,0-6.8476-3.2549,30.2164,30.2164,0,0,1-16.4082-10.5772,28.7327,28.7327,0,0,1-6.9161-18.7138,28.3436,28.3436,0,0,1,2.5088-11.7969,29.8823,29.8823,0,0,1,6.8477-9.6279q9.0836-8.95,21.0185-8.95A28.6132,28.6132,0,0,1,386.49,292.8a32.4112,32.4112,0,0,1,9.7637,6.5088,31.2889,31.2889,0,0,1,6.78,9.6963,27.0014,27.0014,0,0,1,2.5088,11.1875,28.9344,28.9344,0,0,1-1.6953,10.17,33.1223,33.1223,0,0,1-4.543,8.34,30.7869,30.7869,0,0,1-15.0518,10.7129q3.1173,1.49,5.3565,2.8477,2.2368,1.3535,4.2715,2.44a24.6589,24.6589,0,0,0,10.3056,2.0342,21.4349,21.4349,0,0,0,4.543-.4062A14.5807,14.5807,0,0,1,411.1027,355.9238Zm-29.63-58.9883a12.5023,12.5023,0,0,0-7.9327-2.7119,11.1737,11.1737,0,0,0-7.1875,2.17,15.9962,15.9962,0,0,0-4.3388,5.4238q-2.9854,6.1024-2.9834,15.7305,0,11.7978,3.9326,19.7978,4.8808,9.7632,13.9668,9.7637,7.4561,0,11.12-7.5938,3.1171-6.2358,3.1182-15.5947,0-11.9312-4.0674-19.9336A20.3921,20.3921,0,0,0,381.4729,296.9355Z"/><path class="cls-5" d="M432.1213,314.9707a48.8259,48.8259,0,0,0,17.3574-4.7461,2.44,2.44,0,0,1,1.085.6787c.3594.3623.542.6328.542.8135a21.3631,21.3631,0,0,0-.6778,3.5937,36.0892,36.0892,0,0,0-.4072,4.8135v20.3408c0,.7247.0215,1.3565.0684,1.8985a2.35,2.35,0,0,0,.7451,1.4912q.8145.8145,4.0683.8144a3.2163,3.2163,0,0,1,.2715,1.4239,2.4317,2.4317,0,0,1-.5429,1.56,53.8712,53.8712,0,0,0-8.8145,1.627q-6.1011,1.49-6.5088,1.4912-.813,0-.8135-2.1689v-1.4922q0-.5406-.2714-.4063A23.56,23.56,0,0,1,425.6115,350.5q-8.8153,0-10.9834-9.8994a33.9585,33.9585,0,0,1-.5429-6.1026v-9.0849a29.0558,29.0558,0,0,0-.27-3.2549,11.1506,11.1506,0,0,0-.543-2.7119q-.68-1.3536-4.61-1.627a8.5985,8.5985,0,0,1-1.0166-.2041q-.2036-.0659-.2041-1.3554c0-.8584.0889-1.2891.2715-1.2891a44.2872,44.2872,0,0,0,10.0352-1.9658,63.38,63.38,0,0,0,7.458-2.78,2.0523,2.0523,0,0,1,1.0166.6787,1.562,1.562,0,0,1,.4746.8135,9.3708,9.3708,0,0,0-.542,2.3047q-.2739,1.765-.3389,2.9834-.07,1.2216-.0683,3.1191V330.43q0,7.1895,1.3564,10.917a5.3651,5.3651,0,0,0,5.56,3.7285,7.9563,7.9563,0,0,0,3.8652-1.085q1.9629-1.0839,1.9658-2.1689V325.4131a28.8646,28.8646,0,0,0-.2714-3.2549,11.1634,11.1634,0,0,0-.542-2.7119q-.8145-1.7607-5.6953-1.7627c-.1827-.0889-.2715-.5635-.2715-1.4238C431.7141,315.4014,431.85,314.9707,432.1213,314.9707Z"/><path class="cls-5" d="M467.4436,336.126l1.4922-37.97q0-2.1681-1.3565-2.8477a12.61,12.61,0,0,0-4.8818-1.085,3.1894,3.1894,0,0,1-.27-1.9658,4.1241,4.1241,0,0,1,.27-1.4238q3.1187.1362,4.8818.3389a45.0914,45.0914,0,0,0,4.8819.2031l9.3574-.542,16.95,37.9687.2715.1358c.27,0,.4062-.18.4062-.542l3.7969-9.4932q7.9995-19.9335,9.7637-27.6631h1.2207l4.2041.1358h1.7627q2.0331,0,12.8818-.542a3.4279,3.4279,0,0,1,.4746,1.5586,3.2884,3.2884,0,0,1-.0674,1.831,17.6785,17.6785,0,0,0-2.373.2715,5.2945,5.2945,0,0,0-2.3731.8135q-1.3578.9507-1.2207,3.458.1333,2.5107.2715,7.0508.1333,4.5454.3389,9.9678.2035,5.4243.3388,10.916.1333,5.4917.4073,9.0176.4058,7.5951,1.22,9.7636.271,1.22,4.4756,1.627h1.0849a4.0735,4.0735,0,0,1,.1348,3.3906q-8.1357-.8145-12.4756-.8145t-13.6953.8145a2.6669,2.6669,0,0,1-.3389-1.4922,4.5334,4.5334,0,0,1,.2032-1.8984,12.5382,12.5382,0,0,0,4.4072-.61,4.55,4.55,0,0,0,1.83-1.0166,8.1149,8.1149,0,0,0,.6787-3.1191v-5.56l-.8145-27.5283q0-5.9649-.8134-5.9658c-.1817,0-.3174.1816-.4063.542L498.633,346.5674a7.8659,7.8659,0,0,1-2.1015,2.7793,3.494,3.494,0,0,1-1.6953.8818,1.9068,1.9068,0,0,1-.8135-.1357L473.9533,303.31q-.2739,6.9155-.3388,11.2549-.07,4.3417-.2041,7.8652-.4057,10.0371-.542,13.6963-.2739,6.1011.2715,8.1357.27,1.6275,6.373,2.5762a10.33,10.33,0,0,0,1.4912.2715,4.4467,4.4467,0,0,1,.34,1.6269A4.1359,4.1359,0,0,1,481.14,350.5q-2.7144-.2739-5.4239-.543-2.7142-.27-5.0849-.2715-2.3745,0-11.7305.8145a3.7439,3.7439,0,0,1-.1357-3.2549,10.0639,10.0639,0,0,0,5.0175-1.2207,7.35,7.35,0,0,0,2.4415-1.7627,6.5251,6.5251,0,0,0,.4746-1.6269q.2036-1.084.3388-2.3057.1333-1.22.2715-2.44Q467.4422,336.6685,467.4436,336.126Z"/><path class="cls-5" d="M576.469,343.1768a1.3342,1.3342,0,0,1,.6787,1.2207,3.6074,3.6074,0,0,1-.4072,1.6269,19.9263,19.9263,0,0,1-2.8477,2.17q-3.6606,2.4405-6.1025,2.44a7.3318,7.3318,0,0,1-4.4073-1.4239A7.4363,7.4363,0,0,1,560.74,346.16a15.4642,15.4642,0,0,1-5.3565,3.2548,16.0925,16.0925,0,0,1-5.3564,1.3555,10.1951,10.1951,0,0,1-4.0684-.9492,11.7068,11.7068,0,0,1-3.6611-2.44q-3.3911-3.3882-3.3906-6.78a8.9706,8.9706,0,0,1,1.4238-5.3565,6.0955,6.0955,0,0,1,2.9834-2.4414q1.5571-.4731,3.6611-1.2881,2.1021-.8129,4.543-1.7626,3.1187-1.0841,8.6787-3.2549v-4.2032a12.8576,12.8576,0,0,0-1.4912-6.17q-1.4941-2.7788-3.9326-2.78a3.5375,3.5375,0,0,0-3.458,2.17,17.8235,17.8235,0,0,0-1.4239,4.4746q-1.0869,4.749-5.289,4.7461a4.929,4.929,0,0,1-3.1865-1.1524,3.2474,3.2474,0,0,1-1.4239-2.5088,9.93,9.93,0,0,1,1.2207-4.3388,20.4619,20.4619,0,0,1,4.8819-3.2549q6.9154-3.5244,12.4072-3.5254a12.8652,12.8652,0,0,1,9.3574,3.7969,13.2623,13.2623,0,0,1,3.8643,9.8984v16.68a4.5533,4.5533,0,0,0,.6787,2.78,1.9414,1.9414,0,0,0,1.5586.8808,2.9833,2.9833,0,0,0,1.56-.4062ZM556.4,344.5332a4.6111,4.6111,0,0,0,2.78-.7461c.6777-.4961,1.0166-.8818,1.0166-1.1523V330.1592q-1.4942.68-3.0508,1.2881a16.8364,16.8364,0,0,0-3.1865,1.6953,6.1032,6.1032,0,0,0-2.916,5.4238q.0674,3.3911,1.831,4.6787A5.9455,5.9455,0,0,0,556.4,344.5332Z"/><path class="cls-5" d="M600.0637,347.2451a9.3539,9.3539,0,0,0,5.8311-1.9668q2.5752-1.9629,2.5771-6.7119,0-4.0679-5.0176-8.543a31.4367,31.4367,0,0,0-4.34-3.3906q-2.3071-1.49-4.3389-2.915-2.0346-1.4238-4.4072-3.0508a25.6124,25.6124,0,0,1-4.2715-3.6621,15.6723,15.6723,0,0,1-3.9326-10.7129q0-6.6415,6.1025-11.5264a20.1224,20.1224,0,0,1,13.0176-4.61,32.2314,32.2314,0,0,1,7.3906.8135q3.4586.8144,7.5264,1.6279.4058,3.5272.61,7.1865.2022,3.6621.4747,7.7295a1.4892,1.4892,0,0,1-.9493.543q-2.5781,0-2.7129-.6787a19.25,19.25,0,0,0-3.6611-8.543q-3.5273-4.8808-8.2715-4.8819a9.1357,9.1357,0,0,0-5.1533,1.628q-2.44,1.626-2.44,6.1015,0,5.833,12.8818,14.3741,2.1679,1.4941,4.543,3.0517a23.4848,23.4848,0,0,1,4.2715,3.5928,17.1433,17.1433,0,0,1,4.34,11.7978,14.5348,14.5348,0,0,1-6.1025,11.9336,20.8453,20.8453,0,0,1-13.2891,4.61,67.0768,67.0768,0,0,1-17.0859-2.44q-1.358-7.1867-1.6953-10.7129-.34-3.5244-.4746-4.4756a2.846,2.846,0,0,1,1.288-.8135,4.7517,4.7517,0,0,1,1.6953-.4062.7555.7555,0,0,1,.8135.6777q.6768,4.3417,4.61,9.085Q594.5021,347.2456,600.0637,347.2451Z"/></svg>